<svg xmlns="http://www.w3.org/2000/svg" width="15" height="16.6" viewBox="0 0 15 16.6"><defs><style>.a{fill:#9e9e9e;}</style></defs><path class="a" d="M7.5,16.6a2.42,2.42,0,0,1-1.1-.265l-5-2.52A2.644,2.644,0,0,1,0,11.561V2.52A2.519,2.519,0,0,1,.725.738,2.474,2.474,0,0,1,2.5,0h10a2.474,2.474,0,0,1,1.775.738A2.519,2.519,0,0,1,15,2.52v9.041a2.644,2.644,0,0,1-1.4,2.254l-5,2.52A2.42,2.42,0,0,1,7.5,16.6ZM2.5,1.68a.853.853,0,0,0-.8.84v9.041a.848.848,0,0,0,.5.751l4.9,2.52a.949.949,0,0,0,.8,0l5-2.52a.97.97,0,0,0,.4-.751V2.52a.853.853,0,0,0-.8-.84Z" transform="translate(0 0)"/><path class="a" d="M1,0A1,1,0,0,0,0,1.05L.2,5.779a.818.818,0,0,0,.8.787.818.818,0,0,0,.8-.787L2,1.05A1,1,0,0,0,1,0Z" transform="translate(6.5 3.152)"/><path class="a" d="M0,1.182A1.168,1.168,0,0,1,1.2,0,1.148,1.148,0,0,1,2.3,1.182,1.148,1.148,0,0,1,1.2,2.363,1.168,1.168,0,0,1,0,1.182Z" transform="translate(6.3 11.032)"/></svg>