<svg xmlns="http://www.w3.org/2000/svg" width="21" height="21" viewBox="0 0 21 21"><defs><style>.a{fill:#f9a61a;}</style></defs><path class="a" d="M10.5,21A10.506,10.506,0,0,1,3.068,3.075a10.462,10.462,0,0,1,14.817,0,10.405,10.405,0,0,1,0,14.849A10.432,10.432,0,0,1,10.5,21Zm0-18.9a8.4,8.4,0,1,0,0,16.8,8.27,8.27,0,0,0,5.883-2.46,8.384,8.384,0,0,0,0-11.878A8.27,8.27,0,0,0,10.5,2.1Zm0,13.9a1.1,1.1,0,0,1-1.138-1.051V11.549H5.946a1.051,1.051,0,0,1,0-2.1H9.361v-3.4A1.1,1.1,0,0,1,10.5,5a1.073,1.073,0,0,1,1.013,1.051v3.4h3.415a1.051,1.051,0,0,1,0,2.1H11.512v3.405A1.073,1.073,0,0,1,10.5,16Z"/></svg>