<svg xmlns="http://www.w3.org/2000/svg" width="21.125" height="18.567" viewBox="0 0 21.125 18.567"><defs><style>.a{fill:#fff;}</style></defs><g transform="translate(0 -31)"><path class="a" d="M.619,47.091H3.713v1.857a.619.619,0,0,0,.619.619H20.506a.619.619,0,0,0,.619-.619V32.857a.619.619,0,0,0-.619-.619H17.411v-.619a.619.619,0,1,0-1.238,0v.619H13.038v-.619a.619.619,0,1,0-1.238,0v.619H8.705v-.619a.619.619,0,1,0-1.238,0v.619H4.332a.619.619,0,0,0-.619.619V36.57c0,4.561-1.9,8.07-3.491,9.427a.619.619,0,0,0,.4,1.094Zm19.268,1.238H4.951V47.091H16.792a.619.619,0,0,0,.4-.143,11.423,11.423,0,0,0,2.7-3.985ZM4.951,33.476H7.468v.619a.619.619,0,1,0,1.238,0v-.619H11.8v.619a.619.619,0,1,0,1.238,0v-.619h3.136v.619a.619.619,0,1,0,1.238,0v-.619h2.476v2.476H4.951ZM4.94,37.188H19.876a12.97,12.97,0,0,1-3.326,8.665H2.026A14.894,14.894,0,0,0,4.94,37.188Z" transform="translate(0)"/></g></svg>