<svg xmlns="http://www.w3.org/2000/svg" width="17" height="17" viewBox="0 0 17 17"><defs><style>.a{fill:#9e9e9e;}</style></defs><path class="a" d="M8.5,17A8.5,8.5,0,0,1,2.483,2.489a8.469,8.469,0,0,1,11.995,0,8.424,8.424,0,0,1,0,12.021A8.445,8.445,0,0,1,8.5,17Zm0-15.3a6.8,6.8,0,1,0,0,13.6,6.694,6.694,0,0,0,4.762-1.992,6.787,6.787,0,0,0,0-9.616A6.7,6.7,0,0,0,8.5,1.7Zm2.154,10.667a.911.911,0,0,1-.515-.166L8.5,10.974,6.759,12.2a.758.758,0,0,1-.472.166.9.9,0,0,1-.7-.36.859.859,0,0,1-.156-.757l.716-1.985L4.4,8.037a.863.863,0,0,1-.274-.975A.814.814,0,0,1,4.916,6.5H6.964l.716-1.986a.8.8,0,0,1,1.536,0L9.933,6.5h2.048a.88.88,0,0,1,.845.624.8.8,0,0,1-.333.914L10.856,9.265l.614,1.985a.9.9,0,0,1-.151.784A.838.838,0,0,1,10.653,12.367Z"/></svg>