<svg xmlns="http://www.w3.org/2000/svg" width="17.001" height="15" viewBox="0 0 17.001 15"><defs><style>.a{fill:#9e9e9e;}</style></defs><path class="a" d="M9.773,15a.845.845,0,0,1-.7-.371L7.484,12.3,5.1,13.64a.864.864,0,0,1-.85,0,.837.837,0,0,1-.42-.72V8.876L.512,7.429A.849.849,0,0,1,0,6.647a.837.837,0,0,1,.543-.757L15.838.057A.878.878,0,0,1,16.149,0a.857.857,0,0,1,.621.265.828.828,0,0,1,.154.922L10.545,14.521A.859.859,0,0,1,9.839,15ZM13.678,4.048,7.494,9.314l2.15,3.16ZM5.529,9.681v1.8l1.013-.568L5.8,9.813Zm6.378-6.337L3.061,6.718l1.966.855a.262.262,0,0,1,.032.016l1.187.583Z" transform="translate(0 0)"/></svg>