<svg xmlns="http://www.w3.org/2000/svg" width="26.404" height="23" viewBox="0 0 26.404 23"><defs><style>.a{fill:#fff;}</style></defs><path class="a" d="M173.487,41.973A4.487,4.487,0,1,0,169,37.487,4.492,4.492,0,0,0,173.487,41.973Zm0-7.426a2.939,2.939,0,1,1-2.939,2.939A2.943,2.943,0,0,1,173.487,34.547Z" transform="translate(-160.285 -33)"/><path class="a" d="M379.836,102.673A2.836,2.836,0,1,0,377,99.836,2.84,2.84,0,0,0,379.836,102.673Zm0-4.126a1.289,1.289,0,1,1-1.289,1.289A1.291,1.291,0,0,1,379.836,98.547Z" transform="translate(-357.558 -93.7)"/><path class="a" d="M22.9,241h-1.2a3.507,3.507,0,0,0-3.181,2.029,6.226,6.226,0,0,0-4.6-2.029H12.481a6.226,6.226,0,0,0-4.6,2.029A3.507,3.507,0,0,0,4.7,241H3.5A3.5,3.5,0,0,0,0,244.48v5.632a1.516,1.516,0,0,0,1.517,1.511h4.73a1.808,1.808,0,0,0,1.8,1.65H18.358a1.808,1.808,0,0,0,1.8-1.65h4.676a1.569,1.569,0,0,0,1.571-1.565V244.48A3.5,3.5,0,0,0,22.9,241ZM1.547,244.48A1.946,1.946,0,0,1,3.5,242.547H4.7a1.946,1.946,0,0,1,1.954,1.933v.53c-.52,1.354-.413,2.166-.413,5.066H1.547Zm17.069,6.987a.259.259,0,0,1-.259.259H8.046a.259.259,0,0,1-.259-.259v-4.227a4.7,4.7,0,0,1,4.694-4.694h1.442a4.7,4.7,0,0,1,4.694,4.694Zm6.24-1.409c0,.027.288.018-4.693.018,0-2.921.107-3.714-.413-5.066v-.53a1.946,1.946,0,0,1,1.954-1.933h1.2a1.946,1.946,0,0,1,1.954,1.933Z" transform="translate(0 -230.274)"/><path class="a" d="M27.836,102.673A2.836,2.836,0,1,0,25,99.836,2.84,2.84,0,0,0,27.836,102.673Zm0-4.126a1.289,1.289,0,1,1-1.289,1.289A1.291,1.291,0,0,1,27.836,98.547Z" transform="translate(-23.711 -93.7)"/></svg>