<svg xmlns="http://www.w3.org/2000/svg" width="62" height="76" viewBox="0 0 62 76"><defs><style>.a{fill:#f9a61a;}</style></defs><g transform="translate(-725 -772)"><rect class="a" width="62" height="76" rx="5" transform="translate(725 772)"/><path d="M29.046,15.645l1.561,1.561a1.681,1.681,0,0,1,0,2.384L16.945,33.258a1.681,1.681,0,0,1-2.384,0L.893,19.589a1.681,1.681,0,0,1,0-2.384l1.561-1.561a1.689,1.689,0,0,1,2.412.028l8.072,8.473V3.938A1.683,1.683,0,0,1,14.625,2.25h2.25a1.683,1.683,0,0,1,1.688,1.688V24.145l8.072-8.473a1.677,1.677,0,0,1,2.412-.028Z" transform="translate(740.25 788.998)"/></g></svg>