<svg xmlns="http://www.w3.org/2000/svg" width="32" height="32" viewBox="0 0 32 32"><defs><style>.a{fill:#f9a61b;stroke:#fff;}.b{fill:#fff;}.c{stroke:none;}.d{fill:none;}</style></defs><g transform="translate(-327 -382)"><g class="a" transform="translate(327 382)"><circle class="c" cx="16" cy="16" r="16"/><circle class="d" cx="16" cy="16" r="15.5"/></g><path class="b" d="M4.209,12.293A1.4,1.4,0,0,1,3.2,11.866a1.488,1.488,0,0,1-.44-1.323L3.2,8.367a1.331,1.331,0,0,1,.44-.743l7.121-7.2a1.515,1.515,0,0,1,2.11,0l1.67,1.735a1.386,1.386,0,0,1,0,2.066l-7.121,7.2-.011.009a1.548,1.548,0,0,1-.78.389l-2.11.441A1.709,1.709,0,0,1,4.209,12.293Zm.4-3.4-.088.387-.351,1.554,1.582-.315L6.1,10.44,4.6,8.892ZM11.813,1.46h0L10.758,2.493,5.483,7.765,7.241,9.5l5.275-5.272L13.572,3.2l-.7-.7-.352-.331-.7-.7Z" transform="translate(334.266 392)"/></g></svg>