<svg xmlns="http://www.w3.org/2000/svg" xmlns:xlink="http://www.w3.org/1999/xlink" width="216.457" height="129.83" viewBox="0 0 216.457 129.83"><defs><style>.a,.e{fill:#fff;}.a,.b,.c,.d{stroke:#e8e8e8;}.a,.b,.e,.g{stroke-linejoin:round;}.a,.b,.c,.d,.e,.g,.h,.i{stroke-miterlimit:10;}.a,.b,.d{stroke-width:1.4px;}.b,.c,.d,.g,.h,.k{fill:none;}.c{stroke-width:1.19px;}.e,.g{stroke:#000;}.e,.g,.h{stroke-width:2px;}.f{fill:url(#a);}.g{stroke-linecap:round;}.h,.i{stroke:#f9a61b;opacity:0.193;}.i{fill:#e5d9ff;stroke-width:5.4px;}.j{stroke:none;}</style><linearGradient id="a" x1="0.5" x2="0.5" y2="1" gradientUnits="objectBoundingBox"><stop offset="0" stop-color="#fff7e8"/><stop offset="1" stop-color="#fff6e6"/></linearGradient></defs><g transform="translate(0 -11.67)"><g transform="translate(40)"><g transform="translate(94 43)"><g transform="translate(16.905 0.323) rotate(25)"><g transform="translate(0.201 0.233)"><path class="a" d="M29.4,9.124,20.253,0H0V37.8H29.4V9.124Z" transform="translate(0.344 0.381)"/><path class="b" d="M0,0V9.124H9.147Z" transform="translate(20.598 0.381)"/></g><g class="c" transform="translate(9.957 14.514)"><circle class="j" cx="1.05" cy="1.05" r="1.05"/><circle class="k" cx="1.05" cy="1.05" r="1.645"/></g><path class="d" d="M9.8,2.8A5.253,5.253,0,0,0,4.9,0,5.26,5.26,0,0,0,0,2.8" transform="translate(9.972 22.794)"/><g class="c" transform="translate(17.496 14.488)"><circle class="j" cx="1.05" cy="1.05" r="1.05"/><circle class="k" cx="1.05" cy="1.05" r="1.645"/></g></g></g><g transform="translate(45 43)"><g transform="translate(-16.905 0.323) rotate(-25)"><g transform="translate(-0.201 0.233)"><path class="a" d="M-29.4,9.124-20.253,0H0V37.8H-29.4V9.124Z" transform="translate(-0.344 0.381)"/><path class="b" d="M0,0V9.124H-9.147Z" transform="translate(-20.598 0.381)"/></g><g class="c" transform="translate(-12.057 14.514)"><circle class="j" cx="1.05" cy="1.05" r="1.05"/><circle class="k" cx="1.05" cy="1.05" r="1.645"/></g><path class="d" d="M-9.8,2.8A5.253,5.253,0,0,1-4.9,0,5.26,5.26,0,0,1,0,2.8" transform="translate(-9.972 22.794)"/><g class="c" transform="translate(-19.596 14.488)"><circle class="j" cx="1.05" cy="1.05" r="1.05"/><circle class="k" cx="1.05" cy="1.05" r="1.645"/></g></g></g><g transform="translate(100.486 22.599) rotate(30)"><g transform="translate(-16.905 0.323) rotate(-25)"><g transform="translate(-0.201 0.233)"><path class="a" d="M-29.4,9.124-20.253,0H0V37.8H-29.4V9.124Z" transform="translate(-0.344 0.381)"/><path class="b" d="M0,0V9.124H-9.147Z" transform="translate(-20.598 0.381)"/></g><g class="c" transform="translate(-12.057 14.514)"><circle class="j" cx="1.05" cy="1.05" r="1.05"/><circle class="k" cx="1.05" cy="1.05" r="1.645"/></g><path class="d" d="M-9.8,2.8A5.253,5.253,0,0,1-4.9,0,5.26,5.26,0,0,1,0,2.8" transform="translate(-9.972 22.794)"/><g class="c" transform="translate(-19.596 14.488)"><circle class="j" cx="1.05" cy="1.05" r="1.05"/><circle class="k" cx="1.05" cy="1.05" r="1.645"/></g></g></g></g><g transform="translate(79 87)"><path class="e" d="M58.877,36H2.123A2.131,2.131,0,0,1,0,33.862V0H61V33.862A2.131,2.131,0,0,1,58.877,36Z" transform="translate(0 17)"/><path class="e" d="M27.365,9.412V2.375A2.26,2.26,0,0,0,25.241,0H2.123A2.26,2.26,0,0,0,0,2.375V20H61V11.787a2.26,2.26,0,0,0-2.123-2.375Z"/><rect class="f" width="53" height="27" rx="2" transform="translate(4 23.697)"/></g><g transform="translate(0 140)"><path class="g" d="M0,.5H5.522" transform="translate(50.239)"/><path class="g" d="M3.543.5H159.457" transform="translate(56)"/><path class="g" d="M1.022.5H45.978"/></g><circle class="h" cx="5" cy="5" r="5" transform="translate(1 54)"/><circle class="h" cx="3" cy="3" r="3" transform="translate(191 118)"/><circle class="i" cx="2.5" cy="2.5" r="2.5" transform="translate(192 26)"/><path class="h" d="M.429,7.064S-1.089,4.046,2.763,4.046,5.977,0,5.977,0" transform="translate(209 71)"/><path class="h" d="M.429,7.064S-1.089,4.046,2.763,4.046,5.977,0,5.977,0" transform="translate(11 108)"/></g></svg>