<svg xmlns="http://www.w3.org/2000/svg" width="15" height="16.602" viewBox="0 0 15 16.602"><defs><style>.a{fill:#9e9e9e;}</style></defs><path class="a" d="M12.5,16.6H2.5A2.483,2.483,0,0,1,0,14.113V7.088A2.533,2.533,0,0,1,.8,5.256l5-4.6A2.492,2.492,0,0,1,7.5,0,2.373,2.373,0,0,1,9.1.591l5,4.208A2.724,2.724,0,0,1,15,6.7v7.415A2.56,2.56,0,0,1,12.5,16.6ZM5.8,9.155H9.1a1.643,1.643,0,0,1,1.7,1.66v4.128h1.7a.848.848,0,0,0,.8-.83V6.7a.789.789,0,0,0-.3-.634L8,1.857a.723.723,0,0,0-.5-.2,1.052,1.052,0,0,0-.6.219l-5,4.6a1.183,1.183,0,0,0-.2.611v7.025a.78.78,0,0,0,.8.83H4.2V10.814A1.613,1.613,0,0,1,5.8,9.155Zm0,1.66v4.122H9.1V10.814Z" transform="translate(0 0)"/></svg>