<svg xmlns="http://www.w3.org/2000/svg" width="16.013" height="18.748" viewBox="0 0 16.013 18.748"><defs><style>.a{opacity:0.488;}.b{stroke:#000001;}</style></defs><g class="a" transform="translate(-38.951 2.5)"><g transform="translate(39.451 -2)"><g transform="translate(0)"><path class="b" d="M52.266,2.2A7.507,7.507,0,0,0,39.451,7.507c0,4.056,3.835,7.43,5.9,9.242.286.252.534.469.731.653a1.293,1.293,0,0,0,1.761,0c.2-.184.444-.4.731-.653,2.06-1.813,5.9-5.186,5.9-9.242A7.458,7.458,0,0,0,52.266,2.2Zm-4.384,13.77c-.293.257-.545.48-.754.674a.251.251,0,0,1-.341,0c-.208-.195-.461-.417-.754-.674-1.937-1.7-5.543-4.876-5.543-8.462a6.467,6.467,0,0,1,12.934,0C53.425,11.093,49.819,14.264,47.882,15.968Z" transform="translate(-39.451)"/></g></g><g transform="translate(43.65 1.915)"><g transform="translate(0)"><path class="b" d="M163.878,112.938a3.308,3.308,0,1,0,3.308,3.308A3.312,3.312,0,0,0,163.878,112.938Zm0,5.576a2.268,2.268,0,1,1,2.268-2.268A2.271,2.271,0,0,1,163.878,118.514Z" transform="translate(-160.57 -112.938)"/></g></g></g></svg>