<svg xmlns="http://www.w3.org/2000/svg" width="29.316" height="16.025" viewBox="0 0 29.316 16.025"><defs><style>.a{fill:#fff;stroke:#fff;}</style></defs><path class="a" d="M27.9,134.366H27.25l-6.107-10.178a1.307,1.307,0,0,0-1.7-.494l-.772.386-3.527-3.527a1.3,1.3,0,0,0-1.93.1l-4.908,6.04-.008,0a1.3,1.3,0,0,0-1.54.4L1.1,134.366H.415a.415.415,0,0,0,0,.83H27.9a.415.415,0,0,0,0-.83ZM13.86,121.175a.472.472,0,0,1,.7-.036l3.564,3.564-.2.672a.415.415,0,1,0,.8.233l.215-.735.877-.439a.474.474,0,0,1,.616.179l5.851,9.751H23.623l-5.948-5.172.539-1.844a.415.415,0,1,0-.8-.233l-.432,1.478-2.873-2.5a1.3,1.3,0,0,0-1.687-.018l-1.885,1.571-1.44-.617Zm.119,13.191-2.857-6.121,1.835-1.529a.47.47,0,0,1,.612.006l8.79,7.644ZM7.415,127.6a.472.472,0,0,1,.558-.144l2.329,1,2.761,5.916H5.553l1.874-3.374a.415.415,0,1,0-.725-.4l-2.1,3.777H2.15Z" transform="translate(0.5 -119.671)"/></svg>