<svg xmlns="http://www.w3.org/2000/svg" width="17.002" height="17" viewBox="0 0 17.002 17"><defs><style>.a{opacity:0.488;}</style></defs><path class="a" d="M12.242,17a9.155,9.155,0,0,1-2.729-.444,1.386,1.386,0,0,1-.139-.057l-.056-.025L9.3,16.465a25.858,25.858,0,0,1-4.01-2.621A13.916,13.916,0,0,1,.386,7.406,6.267,6.267,0,0,1,.58,2.553a5.364,5.364,0,0,1,2.5-2.4A1.492,1.492,0,0,1,3.727,0,1.649,1.649,0,0,1,5.1.782L6.88,3.623a1.577,1.577,0,0,1-.194,1.988c-.268.257-.639.579-.932.831l-.227.2c-.094.082-.184.161-.265.233a11.979,11.979,0,0,0,5,4.819l1.148-1.462a1.71,1.71,0,0,1,2.243-.4c.817.508,1.74,1.052,2.47,1.456a1.676,1.676,0,0,1,.86,1.71,4.667,4.667,0,0,1-1.516,2.953,4.533,4.533,0,0,1-2.479,1.006A6.709,6.709,0,0,1,12.242,17ZM3.694,1.757A3.722,3.722,0,0,0,2.1,3.335,4.638,4.638,0,0,0,2.014,6.89,12.774,12.774,0,0,0,6.358,12.5a23.108,23.108,0,0,0,3.719,2.432,7.424,7.424,0,0,0,2.164.353,4.98,4.98,0,0,0,.55-.029,2.883,2.883,0,0,0,1.578-.614,2.982,2.982,0,0,0,.922-1.853c-1.036-.575-2.115-1.234-2.531-1.49,0,0,0,0-.01,0l-1.188,1.5a1.632,1.632,0,0,1-1.28.638,1.56,1.56,0,0,1-.667-.151,13.614,13.614,0,0,1-5.86-5.614,1.62,1.62,0,0,1,.308-2.022c.263-.237.469-.416.666-.58l.159-.14c.18-.158.349-.306.506-.457Z" transform="translate(0.003 0)"/></svg>