<svg xmlns="http://www.w3.org/2000/svg" width="80.043" height="64" viewBox="0 0 80.043 64"><defs><style>.a{fill:#f9a61a;}</style></defs><g transform="translate(0 -0.001)"><circle class="a" cx="32" cy="32" r="32" transform="translate(0 0.001)"/><path d="M23.347-22.38C13.15-19.378.78-10.537.78,5.142c0,12.01,7.857,18.348,15.546,18.348,6.352,0,10.364-4.5,10.364-9.674,0-4.17-2.675-9.007-9.528-10.008C12.649,3.14,7.3,2.473,7.3-3.031c0-7.84,9.194-15.512,16.382-18.348Zm31.427,0c-10.2,3-22.567,11.843-22.567,27.522,0,12.01,7.857,18.348,15.546,18.348,6.352,0,10.364-4.5,10.364-9.674,0-4.17-2.675-9.007-9.528-10.008-4.513-.667-9.863-1.334-9.863-6.839,0-7.84,9.194-15.512,16.382-18.348Z" transform="translate(21.925 32.057)"/></g></svg>