<svg xmlns="http://www.w3.org/2000/svg" width="135.432" height="20.406" viewBox="0 0 135.432 20.406"><defs><style>.a{fill:#f9a61a;stroke:#f9a61b;}</style></defs><g transform="translate(227.028 -655.743) rotate(90)"><path class="a" d="M657.421,93.924l17.05,17.05V110l-17.05-17.05Z" transform="matrix(1, -0.017, 0.017, 1, -2.679, 11.647)"/><path class="a" d="M657.421,106.737l17.05,17.049v-.974l-17.05-17.049Z" transform="matrix(1, -0.017, 0.017, 1, -2.749, 7.657)"/><path class="a" d="M657.421,119.55l17.05,17.049v-.974l-17.05-17.049Z" transform="matrix(1, -0.017, 0.017, 1, -2.818, 3.668)"/><path class="a" d="M657.421,132.363l17.05,17.05v-.974l-17.05-17.05Z" transform="matrix(1, -0.017, 0.017, 1, -2.888, -0.321)"/><path class="a" d="M657.421,145.176l17.05,17.049v-.974L657.421,144.2Z" transform="matrix(1, -0.017, 0.017, 1, -2.957, -4.311)"/><path class="a" d="M657.421,157.989l17.05,17.05v-.974l-17.05-17.05Z" transform="matrix(1, -0.017, 0.017, 1, -3.027, -8.3)"/><path class="a" d="M657.421,170.8l17.05,17.049v-.974l-17.05-17.049Z" transform="matrix(1, -0.017, 0.017, 1, -3.097, -12.29)"/><path class="a" d="M657.421,183.615l17.05,17.05v-.974l-17.05-17.05Z" transform="matrix(1, -0.017, 0.017, 1, -3.166, -16.279)"/><path class="a" d="M657.421,196.428l17.05,17.049V212.5l-17.05-17.049Z" transform="matrix(1, -0.017, 0.017, 1, -3.236, -20.268)"/><path class="a" d="M657.421,209.241l17.05,17.05v-.974l-17.05-17.05Z" transform="matrix(1, -0.017, 0.017, 1, -3.306, -24.257)"/><path class="a" d="M657.421,222.054l17.05,17.049v-.974l-17.05-17.049Z" transform="matrix(1, -0.017, 0.017, 1, -3.375, -28.247)"/><path class="a" d="M657.421,234.867l17.05,17.05v-.974l-17.05-17.05Z" transform="matrix(1, -0.017, 0.017, 1, -3.445, -32.236)"/><path class="a" d="M657.421,247.68l17.05,17.049v-.974l-17.05-17.049Z" transform="matrix(1, -0.017, 0.017, 1, -3.515, -36.226)"/><path class="a" d="M657.421,260.493l17.05,17.05v-.974l-17.05-17.05Z" transform="matrix(1, -0.017, 0.017, 1, -3.584, -40.215)"/></g></svg>