<svg xmlns="http://www.w3.org/2000/svg" width="29.341" height="17.637" viewBox="0 0 29.341 17.637"><defs><style>.a{fill:#fff;}</style></defs><path class="a" d="M29.341,116.792A14.671,14.671,0,0,0,4.3,106.418,14.575,14.575,0,0,0,0,116.792v.86H11.749a3.08,3.08,0,0,0,5.574.593,3.109,3.109,0,0,0,.27-.593H29.341Zm-13.5.578a1.361,1.361,0,1,1,.146-1.031,1.363,1.363,0,0,1-.146,1.031Zm1.816-1.438-.005-.022a3.062,3.062,0,0,0-.739-1.342l2.47-4.184-1.48-.874-2.47,4.184a3.085,3.085,0,0,0-3.753,2.239H1.747a12.855,12.855,0,0,1,1.3-4.856l1.909,1.1.86-1.489-1.907-1.1a13.058,13.058,0,0,1,3.554-3.554l1.1,1.907,1.489-.86-1.1-1.909a12.855,12.855,0,0,1,4.857-1.3v2.206H15.53v-2.206a12.855,12.855,0,0,1,4.857,1.3l-1.1,1.909,1.489.86,1.1-1.907a13.058,13.058,0,0,1,3.554,3.554l-1.907,1.1.86,1.489,1.909-1.1a12.855,12.855,0,0,1,1.3,4.856Z" transform="translate(0 -102.121)"/></svg>