<svg xmlns="http://www.w3.org/2000/svg" width="16.96" height="14.148" viewBox="0 0 16.96 14.148"><defs><style>.a{fill:#9e9e9e;stroke:#9c9c9c;stroke-width:0.5px;}</style></defs><g transform="translate(0.25 -43.479)"><g transform="translate(0 49.707)"><g transform="translate(0 0)"><path class="a" d="M14.049,230.917H12.438A2.4,2.4,0,0,0,11.8,231a2.413,2.413,0,0,0-2.15-1.322H6.806A2.413,2.413,0,0,0,4.656,231a2.4,2.4,0,0,0-.634-.085H2.411A2.414,2.414,0,0,0,0,233.328V235.9a1.448,1.448,0,0,0,1.447,1.447H15.013A1.448,1.448,0,0,0,16.46,235.9v-2.576A2.414,2.414,0,0,0,14.049,230.917Zm-9.654,1.174v4.295H1.447a.483.483,0,0,1-.482-.482v-2.576a1.448,1.448,0,0,1,1.447-1.447H4.022a1.443,1.443,0,0,1,.378.051C4.4,231.985,4.395,232.038,4.395,232.091Zm6.706,4.295H5.359v-4.295a1.448,1.448,0,0,1,1.447-1.447H9.654a1.448,1.448,0,0,1,1.447,1.447ZM15.5,235.9a.483.483,0,0,1-.482.482H12.065v-4.295c0-.054,0-.107-.006-.159a1.443,1.443,0,0,1,.378-.051h1.611a1.448,1.448,0,0,1,1.447,1.447Z" transform="translate(0 -229.68)"/></g></g><g transform="translate(1.074 46.39)"><g transform="translate(0 0)"><path class="a" d="M35.557,126.5a2.143,2.143,0,1,0,2.143,2.143A2.145,2.145,0,0,0,35.557,126.5Zm0,3.321a1.178,1.178,0,1,1,1.178-1.178A1.179,1.179,0,0,1,35.557,129.825Z" transform="translate(-33.414 -126.504)"/></g></g><g transform="translate(5.368 43.729)"><g transform="translate(0 0)"><path class="a" d="M169.824,43.729a2.862,2.862,0,1,0,2.862,2.862A2.866,2.866,0,0,0,169.824,43.729Zm0,4.76a1.9,1.9,0,1,1,1.9-1.9A1.9,1.9,0,0,1,169.824,48.489Z" transform="translate(-166.962 -43.729)"/></g></g><g transform="translate(11.101 46.39)"><g transform="translate(0 0)"><path class="a" d="M347.437,126.5a2.143,2.143,0,1,0,2.143,2.143A2.145,2.145,0,0,0,347.437,126.5Zm0,3.321a1.178,1.178,0,1,1,1.178-1.178A1.179,1.179,0,0,1,347.437,129.825Z" transform="translate(-345.294 -126.504)"/></g></g></g></svg>