<svg xmlns="http://www.w3.org/2000/svg" width="22.372" height="15.275" viewBox="0 0 22.372 15.275"><defs><style>.a{opacity:0.488;}</style></defs><path class="a" d="M11.119,15.275a7.809,7.809,0,0,1-5.936-2.721c-.068-.007-.17-.01-.27-.013s-.2-.006-.27-.013a12.943,12.943,0,0,1-2.834-.447L1.7,12.032a3.5,3.5,0,0,1-.83-.45,1.634,1.634,0,0,1-.81-1.065A2.406,2.406,0,0,1,.191,9.11a3.764,3.764,0,0,1,.945-.96A13.318,13.318,0,0,1,3.429,6.862,7.685,7.685,0,0,1,11.119,0a7.779,7.779,0,0,1,6.746,4.089c.135,0,.279,0,.427,0a9.4,9.4,0,0,1,2.271.213,2.989,2.989,0,0,1,1.349.684c.03.05.066.1.105.158a1.3,1.3,0,0,1,.3.709,1.219,1.219,0,0,1-.135.974,3.532,3.532,0,0,1-1.214,1.485,12.045,12.045,0,0,1-2.294,1.63l-.2.118-.013.007-.189.111A7.678,7.678,0,0,1,11.119,15.275Zm3.912-3.825c-1.112.27-2.046.49-3.1.644-.975.167-2.173.307-3.373.4a5.846,5.846,0,0,0,2.563.6A5.688,5.688,0,0,0,15.031,11.45ZM11.119,2.182a5.532,5.532,0,0,0-3.929,1.6,5.4,5.4,0,0,0-1.6,3.857A4.981,4.981,0,0,0,6.4,10.4a33.648,33.648,0,0,0,5.126-.447A19.266,19.266,0,0,0,16.38,8.637a2.489,2.489,0,0,0,.136-1A5.433,5.433,0,0,0,11.119,2.182ZM3.564,9.228c-.152.094-.3.181-.449.266-.238.138-.462.268-.631.392,0,.026,0,.039-.135.065.135.013.135.026.135.039a8.066,8.066,0,0,0,1.349.277A2.909,2.909,0,0,1,3.7,9.748,3.1,3.1,0,0,0,3.564,9.228ZM18.539,6.271a2.861,2.861,0,0,1,.135,1.065,8.811,8.811,0,0,0,.738-.516c.071-.054.139-.105.207-.155a.618.618,0,0,0,.128-.138.437.437,0,0,1,.142-.138A6.7,6.7,0,0,0,18.539,6.271Z" transform="translate(0)"/></svg>