<svg xmlns="http://www.w3.org/2000/svg" width="229.079" height="34.039" viewBox="0 0 229.079 34.039"><defs><style>.a{fill:#fff;stroke:#fff;}</style></defs><g transform="translate(320.675 -655.743) rotate(90)"><path class="a" d="M0,1.659,29.055,30.714V29.054L0,0Z" transform="matrix(1, -0.017, 0.017, 1, 656.264, 93.319)"/><path class="a" d="M0,1.659,29.055,30.713V29.054L0,0Z" transform="matrix(1, -0.017, 0.017, 1, 656.527, 108.352)"/><path class="a" d="M0,1.659,29.055,30.713V29.054L0,0Z" transform="matrix(1, -0.017, 0.017, 1, 656.789, 123.386)"/><path class="a" d="M0,1.659,29.055,30.714V29.055L0,0Z" transform="matrix(1, -0.017, 0.017, 1, 657.051, 138.418)"/><path class="a" d="M0,1.659,29.055,30.713V29.054L0,0Z" transform="matrix(1, -0.017, 0.017, 1, 657.314, 153.452)"/><path class="a" d="M0,1.659,29.055,30.714V29.055L0,0Z" transform="matrix(1, -0.017, 0.017, 1, 657.576, 168.485)"/><path class="a" d="M0,1.659,29.055,30.713V29.054L0,0Z" transform="matrix(1, -0.017, 0.017, 1, 657.839, 183.518)"/><path class="a" d="M0,1.659,29.055,30.714V29.055L0,0Z" transform="matrix(1, -0.017, 0.017, 1, 658.101, 198.551)"/><path class="a" d="M0,1.659,29.055,30.713V29.054L0,0Z" transform="matrix(1, -0.017, 0.017, 1, 658.363, 213.585)"/><path class="a" d="M0,1.659,29.055,30.714V29.055L0,0Z" transform="matrix(1, -0.017, 0.017, 1, 658.626, 228.617)"/><path class="a" d="M0,1.659,29.055,30.713V29.054L0,0Z" transform="matrix(1, -0.017, 0.017, 1, 658.888, 243.651)"/><path class="a" d="M0,1.659,29.055,30.714V29.055L0,0Z" transform="matrix(1, -0.017, 0.017, 1, 659.151, 258.684)"/><path class="a" d="M0,1.659,29.055,30.713V29.054L0,0Z" transform="matrix(1, -0.017, 0.017, 1, 659.413, 273.717)"/><path class="a" d="M0,1.659,29.055,30.714V29.055L0,0Z" transform="matrix(1, -0.017, 0.017, 1, 659.675, 288.75)"/></g></svg>